<svg xmlns="http://www.w3.org/2000/svg" version="1.1" xmlns:xlink="http://www.w3.org/1999/xlink" xmlns:svgjs="http://svgjs.dev/svgjs" width="1000" height="750" viewBox="0 0 1000 750"><rect width="1000" height="750" fill="#000000"></rect><g transform="matrix(0.834,0,0,0.834,82.49454545454546,115.41935708502035)"><svg viewBox="0 0 396 247" data-background-color="#ffffff" preserveAspectRatio="xMidYMid meet" height="623" width="1000" xmlns="http://www.w3.org/2000/svg" xmlns:xlink="http://www.w3.org/1999/xlink"><g id="tight-bounds" transform="matrix(1,0,0,1,0.2400000000000091,-0.09999999999999432)"><svg viewBox="0 0 395.52 247.2" height="247.2" width="395.52"><g><svg></svg></g><g><svg viewBox="0 0 395.52 247.2" height="247.2" width="395.52"><g transform="matrix(1,0,0,1,103.5540564022753,47.215199999999996)"><svg viewBox="0 0 188.4118871954494 152.7696" height="152.7696" width="188.4118871954494"><g><svg viewBox="0 0 188.4118871954494 152.7696" height="152.7696" width="188.4118871954494"><g><svg viewBox="0 0 244.43135999999996 198.1917470839806" height="152.7696" width="188.4118871954494"><g><svg viewBox="0 0 244.43135999999996 198.1917470839806" height="198.1917470839806" width="244.43135999999996"><g id="textblocktransform"><svg viewBox="0 0 244.43135999999996 198.1917470839806" height="198.1917470839806" width="244.43135999999996" id="textblock"><g><svg viewBox="0 0 244.43135999999996 132.480744292893" height="132.480744292893" width="244.43135999999996"><g transform="matrix(1,0,0,1,0,0)"><svg width="244.43135999999996" viewBox="2 -25.25 69.6500015258789 37.75" height="132.480744292893" data-palette-color="#4d7e3e"><path d="M10.9 0L2-25 5.65-25.25 13.1-2.35 22.7-25 26.2-25 9.6 12.5 6.55 12.5 12.05 0 10.9 0ZM30.15-19.9L29.25-22.3Q34.7-25 38.8-25.15L38.8-25.15Q42.05-25.15 43.82-24.33 45.6-23.5 46.7-22.03 47.8-20.55 47.8-17.9L47.8-17.9 47.8 0 44.55 0 44.55-1.9Q37.7 0.2 35.75 0.2L35.75 0.2Q35.65 0.2 35.6 0.2L35.6 0.2Q31.1 0.2 29.45-2.55L29.45-2.55Q28.85-3.55 28.77-4.5 28.7-5.45 28.7-6.1L28.7-6.1Q28.7-7.9 30.1-9.33 31.5-10.75 33.45-11.25L33.45-11.25Q36.75-12.1 44.55-12.75L44.55-12.75 44.55-16.8Q44.55-22.25 38.85-22.25L38.85-22.25Q34.85-22.25 30.15-19.9L30.15-19.9ZM31.75-5.7L31.75-5.7Q31.75-2.1 36.7-2.1L36.7-2.1Q40.65-2.1 44.55-3.8L44.55-3.8 44.55-10.95Q36.75-9.85 34.9-9.25L34.9-9.25Q31.75-8.25 31.75-5.7ZM56.05-25.25L56.05-22.25Q59.8-25 63.15-25.15L63.15-25.15Q66.2-25.15 67.84-24.4 69.5-23.65 70.57-22.28 71.65-20.9 71.65-18.4L71.65-18.4 71.65 0 68.4 0 68.4-17.55Q68.4-19.4 67.59-20.4L67.59-20.4Q66-22.25 62.7-22.25L62.7-22.25Q59.55-22.1 56.05-20.2L56.05-20.2 56.05 0 52.8 0 52.8-25 56.05-25.25Z" opacity="1" transform="matrix(1,0,0,1,0,0)" fill="#ffffff" class="undefined-text-0" data-fill-palette-color="primary" id="text-0"></path></svg></g></svg></g><g transform="matrix(1,0,0,1,0,163.75626848258202)"><svg viewBox="0 0 244.43135999999996 34.4354786013986" height="34.4354786013986" width="244.43135999999996"><g transform="matrix(1,0,0,1,0,0)"><svg width="244.43135999999996" viewBox="2 -36.04999923706055 343.1600036621094 48.349998474121094" height="34.4354786013986" data-palette-color="#31c48d"><path d="M6.1-33.7L6.1-0.8 2-0.4 2 0 26.5 0 27.75-10.9 27.15-11 23.75-2.45Q23.3-1.35 22.75-0.98 22.2-0.6 21-0.6L21-0.6 9.95-0.6 9.95-33.7 14.3-34.1 14.3-34.5 2-34.5 2-34.1 6.1-33.7ZM47.65-5.1L48.1-5.7 48.3-5.6 48.1-5.05Q47.1-2.4 45.12-0.95 43.15 0.5 40.4 0.5L40.4 0.5Q37.7 0.5 35.6-0.9 33.5-2.3 32.32-4.8 31.15-7.3 31.15-10.55L31.15-10.55Q31.15-13.8 32.4-16.35 33.65-18.9 35.95-20.3 38.25-21.7 41.2-21.7L41.2-21.7Q44.7-21.7 46.57-19.63 48.45-17.55 48.5-13.6L48.5-13.6 48.2-13.35 34.7-13.35Q34.6-12.05 34.6-11.3L34.6-11.3Q34.6-6.75 36.45-4.38 38.3-2 41.6-2L41.6-2Q43.3-2 44.87-2.78 46.45-3.55 47.65-5.1L47.65-5.1ZM40.65-21.15Q38.3-21.15 36.75-19.2 35.2-17.25 34.75-13.9L34.75-13.9 44.45-14.25Q44.6-14.85 44.6-16.25L44.6-16.25Q44.6-18.95 43.57-20.05 42.55-21.15 40.65-21.15L40.65-21.15ZM56.8 0.35Q54.9 0.35 53.67-0.98 52.45-2.3 52.45-4.4L52.45-4.4Q52.45-6.9 54.72-8.4 57-9.9 62.45-11L62.45-11 62.45-15.55Q62.45-18.45 61.8-19.58 61.15-20.7 59.55-20.7L59.55-20.7Q58-20.7 57.05-19.88 56.09-19.05 56.09-17.65L56.09-17.65 56.15-16.3Q56.15-15.05 55.67-14.33 55.2-13.6 54.34-13.6L54.34-13.6Q53.59-13.6 53.12-14.1 52.65-14.6 52.65-15.4L52.65-15.4Q52.65-16.6 53.82-18.03 55-19.45 56.84-20.4L56.84-20.4Q59.09-21.65 61.5-21.65L61.5-21.65Q62.9-21.65 63.87-21.1 64.84-20.55 65.3-19.55L65.3-19.55Q65.55-18.9 65.62-17.95 65.7-17 65.7-14.3L65.7-14.3 65.7-4.75Q65.7-2.95 66.05-2.27 66.4-1.6 67.3-1.6L67.3-1.6Q68.65-1.6 69.3-2.55L69.3-2.55 69.5-2.45Q68.9-1.2 67.9-0.53 66.9 0.15 65.75 0.15L65.75 0.15Q64.45 0.15 63.59-0.63 62.75-1.4 62.65-2.7L62.65-2.7 62.5-2.75Q61.34-1.3 59.84-0.48 58.34 0.35 56.8 0.35L56.8 0.35ZM58.95-1.55Q60-1.55 60.92-2.02 61.84-2.5 62.45-3.4L62.45-3.4 62.45-10.45Q59.84-9.8 58.42-9.15 57-8.5 56.4-7.6 55.8-6.7 55.8-5.35L55.8-5.35Q55.8-3.6 56.65-2.58 57.5-1.55 58.95-1.55L58.95-1.55ZM82.49-21.7Q83.49-21.7 84.19-21.03 84.89-20.35 84.89-19.4L84.89-19.4Q84.89-18.6 84.34-18.05 83.79-17.5 82.99-17.5L82.99-17.5Q82.49-17.5 82.17-17.73 81.84-17.95 81.49-18.4L81.49-18.4Q81.14-18.8 80.87-19 80.59-19.2 80.19-19.2L80.19-19.2Q79.39-19.2 78.57-18.25 77.74-17.3 77.39-16.05L77.39-16.05 77.39-0.8 81.39-0.4 81.39 0 71.09 0 71.09-0.4 74.14-0.8 74.14-18.3 71.19-19.4 71.19-19.75 76.84-21.7 77.24-21.7 77.24-17.3Q80.04-21.7 82.49-21.7L82.49-21.7ZM104.89-0.8L107.89-0.4 107.89 0 98.59 0 98.59-0.4 101.64-0.8 101.64-13.55Q101.64-15.5 101.54-16.45 101.44-17.4 101.14-18.05L101.14-18.05Q100.74-18.9 99.81-19.38 98.89-19.85 97.69-19.85L97.69-19.85Q95.14-19.85 93.14-17.7L93.14-17.7 93.14-0.8 96.19-0.4 96.19 0 86.84 0 86.84-0.4 89.89-0.8 89.89-18.05 86.94-19.15 86.94-19.5 92.59-21.45 92.99-21.45 92.99-18.3Q96.19-21.7 99.69-21.7L99.69-21.7Q101.24-21.7 102.52-21.03 103.79-20.35 104.34-19.25L104.34-19.25Q104.69-18.6 104.79-17.48 104.89-16.35 104.89-13.55L104.89-13.55 104.89-0.8ZM111.94-28.9Q111.94-29.95 112.61-30.63 113.29-31.3 114.34-31.3L114.34-31.3Q115.39-31.3 116.06-30.63 116.74-29.95 116.74-28.9L116.74-28.9Q116.74-27.85 116.06-27.18 115.39-26.5 114.34-26.5L114.34-26.5Q113.29-26.5 112.61-27.18 111.94-27.85 111.94-28.9L111.94-28.9ZM116.24-0.8L116.24-21.7 115.84-21.7 110.04-19.75 110.04-19.4 112.99-18.3 112.99-0.8 109.94-0.4 109.94 0 119.29 0 119.29-0.4 116.24-0.8ZM139.44-0.8L142.44-0.4 142.44 0 133.13 0 133.13-0.4 136.19-0.8 136.19-13.55Q136.19-15.5 136.09-16.45 135.99-17.4 135.69-18.05L135.69-18.05Q135.28-18.9 134.36-19.38 133.44-19.85 132.24-19.85L132.24-19.85Q129.69-19.85 127.69-17.7L127.69-17.7 127.69-0.8 130.74-0.4 130.74 0 121.39 0 121.39-0.4 124.44-0.8 124.44-18.05 121.48-19.15 121.48-19.5 127.14-21.45 127.54-21.45 127.54-18.3Q130.74-21.7 134.24-21.7L134.24-21.7Q135.78-21.7 137.06-21.03 138.34-20.35 138.88-19.25L138.88-19.25Q139.24-18.6 139.34-17.48 139.44-16.35 139.44-13.55L139.44-13.55 139.44-0.8ZM160.13-22.05Q159.13-22.05 158.68-20L158.68-20Q159.98-19 160.68-17.57 161.38-16.15 161.38-14.4L161.38-14.4Q161.38-11.7 159.76-9.78 158.13-7.85 155.43-7.3L155.43-7.3Q154.83-7.15 154.23-7.15L154.23-7.15Q151.63-6.7 150.21-5.9 148.78-5.1 148.78-4.1L148.78-4.1Q148.78-3.4 149.23-2.93 149.68-2.45 150.93-2.02 152.18-1.6 154.68-1.15L154.68-1.15Q158.93-0.35 160.73 1.1 162.53 2.55 162.53 5.2L162.53 5.2Q162.53 7.2 161.23 8.83 159.93 10.45 157.63 11.38 155.33 12.3 152.48 12.3L152.48 12.3Q148.33 12.3 146.06 10.83 143.78 9.35 143.78 6.7L143.78 6.7Q143.78 4.85 145.26 3.28 146.73 1.7 149.23 0.9L149.23 0.9Q147.48 0.2 146.71-0.68 145.93-1.55 145.93-2.75L145.93-2.75Q145.93-4.15 147.61-5.3 149.28-6.45 152.43-7.15L152.43-7.15Q149.33-7.45 147.41-9.45 145.48-11.45 145.48-14.45L145.48-14.45Q145.48-17.65 147.71-19.68 149.93-21.7 153.43-21.7L153.43-21.7Q156.23-21.7 158.28-20.35L158.28-20.35Q159.53-24.65 162.13-24.65L162.13-24.65Q163.08-24.65 163.63-24.13 164.18-23.6 164.18-22.75L164.18-22.75Q164.18-22.05 163.68-21.55 163.18-21.05 162.48-21.05L162.48-21.05Q161.88-21.05 161.23-21.6L161.23-21.6Q161.13-21.65 160.81-21.85 160.48-22.05 160.13-22.05L160.13-22.05ZM153.43-7.6Q155.33-7.6 156.51-9.5 157.68-11.4 157.68-14.4L157.68-14.4Q157.68-17.4 156.51-19.3 155.33-21.2 153.43-21.2L153.43-21.2Q151.53-21.2 150.36-19.3 149.18-17.4 149.18-14.4L149.18-14.4Q149.18-11.4 150.36-9.5 151.53-7.6 153.43-7.6L153.43-7.6ZM159.63 6.7Q159.63 4.8 158.28 3.78 156.93 2.75 153.18 2L153.18 2Q151.08 1.65 149.73 1.1L149.73 1.1Q146.18 2.35 146.18 6.25L146.18 6.25Q146.18 8.9 147.91 10.35 149.63 11.8 152.78 11.8L152.78 11.8Q155.93 11.8 157.78 10.43 159.63 9.05 159.63 6.7L159.63 6.7ZM186.68 0.5Q189.53 0.5 191.83-1.05 194.13-2.6 195.43-5.3 196.73-8 196.73-11.4L196.73-11.4Q196.73-14.45 195.68-16.78 194.63-19.1 192.73-20.4 190.83-21.7 188.38-21.7L188.38-21.7Q184.88-21.7 182.23-18.85L182.23-18.85 182.23-36.05 181.83-36.05 176.03-34.1 176.03-33.75 178.98-32.65 178.98 0 179.38 0 180.88-1.35 181.08-1.35Q183.53 0.5 186.68 0.5L186.68 0.5ZM186.63 0Q184.63 0 183.43-1.38 182.23-2.75 182.23-5.05L182.23-5.05 182.23-18.1Q182.98-19.1 184.15-19.65 185.33-20.2 186.68-20.2L186.68-20.2Q189.63-20.2 191.3-17.55 192.98-14.9 192.98-10.35L192.98-10.35Q192.98-5.65 191.25-2.83 189.53 0 186.63 0L186.63 0ZM210.28-3.65L204.98-18.65Q204.63-19.65 204.63-19.95L204.63-19.95Q204.63-20.35 205.15-20.53 205.68-20.7 207.48-20.8L207.48-20.8 207.48-21.2 197.83-21.2 197.83-20.8Q199.53-20.7 200.15-20.38 200.78-20.05 201.18-19.1L201.18-19.1 208.88 0.9 206.93 6.85Q206.28 8.8 205.73 9.63 205.18 10.45 204.53 10.45L204.53 10.45Q204.08 10.45 203.85 10.13 203.63 9.8 203.43 9.1L203.43 9.1Q203.18 8.2 202.78 7.7 202.38 7.2 201.43 7.2L201.43 7.2Q200.43 7.2 199.85 7.8 199.28 8.4 199.28 9.4L199.28 9.4Q199.28 10.65 200.23 11.48 201.18 12.3 202.58 12.3L202.58 12.3Q204.28 12.3 205.58 10.85L205.58 10.85Q206.63 9.85 207.48 7.2L207.48 7.2 215.83-17.35Q216.38-19.05 217.38-19.75 218.38-20.45 220.78-20.8L220.78-20.8 220.78-21.2 211.83-21.2 211.83-20.8Q213.83-20.5 214.58-20.13 215.33-19.75 215.33-18.95L215.33-18.95Q215.33-18.4 215.03-17.4L215.03-17.4 210.48-3.65 210.28-3.65ZM257.17-31.85Q260.22-29.7 261.92-25.95 263.62-22.2 263.62-17.45L263.62-17.45Q263.62-12.7 261.92-8.8 260.22-4.9 257.17-2.7L257.17-2.7Q255.22-1.3 252.69-0.65 250.17 0 246.52 0L246.52 0 233.22 0 233.22-0.4 237.32-0.8 237.32-33.7 233.22-34.1 233.22-34.5 246.52-34.5Q253.32-34.5 257.17-31.85L257.17-31.85ZM255.37-3.55Q256.97-5.6 257.89-9.38 258.82-13.15 258.82-17.7L258.82-17.7Q258.82-22.15 257.94-25.55 257.07-28.95 255.37-30.95L255.37-30.95Q253.97-32.6 251.92-33.25 249.87-33.9 246.07-33.9L246.07-33.9 241.17-33.9 241.17-0.6 246.07-0.6Q250.07-0.6 252.07-1.25 254.07-1.9 255.37-3.55L255.37-3.55ZM277.77-21.7Q280.67-21.7 282.92-20.3 285.17-18.9 286.42-16.38 287.67-13.85 287.67-10.6L287.67-10.6Q287.67-7.35 286.42-4.83 285.17-2.3 282.92-0.9 280.67 0.5 277.77 0.5L277.77 0.5Q274.87 0.5 272.62-0.9 270.37-2.3 269.12-4.83 267.87-7.35 267.87-10.6L267.87-10.6Q267.87-13.85 269.12-16.38 270.37-18.9 272.62-20.3 274.87-21.7 277.77-21.7L277.77-21.7ZM271.57-10.6Q271.57-5.6 273.22-2.8 274.87 0 277.77 0L277.77 0Q280.67 0 282.32-2.8 283.97-5.6 283.97-10.6L283.97-10.6Q283.97-15.6 282.32-18.4 280.67-21.2 277.77-21.2L277.77-21.2Q274.87-21.2 273.22-18.4 271.57-15.6 271.57-10.6L271.57-10.6ZM292.92-28.9Q292.92-29.95 293.59-30.63 294.27-31.3 295.31-31.3L295.31-31.3Q296.37-31.3 297.04-30.63 297.72-29.95 297.72-28.9L297.72-28.9Q297.72-27.85 297.04-27.18 296.37-26.5 295.31-26.5L295.31-26.5Q294.27-26.5 293.59-27.18 292.92-27.85 292.92-28.9L292.92-28.9ZM297.22-0.8L297.22-21.7 296.81-21.7 291.02-19.75 291.02-19.4 293.97-18.3 293.97-0.8 290.92-0.4 290.92 0 300.27 0 300.27-0.4 297.22-0.8ZM320.41-0.8L323.41-0.4 323.41 0 314.11 0 314.11-0.4 317.16-0.8 317.16-13.55Q317.16-15.5 317.06-16.45 316.96-17.4 316.66-18.05L316.66-18.05Q316.26-18.9 315.34-19.38 314.41-19.85 313.21-19.85L313.21-19.85Q310.66-19.85 308.66-17.7L308.66-17.7 308.66-0.8 311.71-0.4 311.71 0 302.36 0 302.36-0.4 305.41-0.8 305.41-18.05 302.46-19.15 302.46-19.5 308.11-21.45 308.51-21.45 308.51-18.3Q311.71-21.7 315.21-21.7L315.21-21.7Q316.76-21.7 318.04-21.03 319.31-20.35 319.86-19.25L319.86-19.25Q320.21-18.6 320.31-17.48 320.41-16.35 320.41-13.55L320.41-13.55 320.41-0.8ZM341.11-22.05Q340.11-22.05 339.66-20L339.66-20Q340.96-19 341.66-17.57 342.36-16.15 342.36-14.4L342.36-14.4Q342.36-11.7 340.74-9.78 339.11-7.85 336.41-7.3L336.41-7.3Q335.81-7.15 335.21-7.15L335.21-7.15Q332.61-6.7 331.19-5.9 329.76-5.1 329.76-4.1L329.76-4.1Q329.76-3.4 330.21-2.93 330.66-2.45 331.91-2.02 333.16-1.6 335.66-1.15L335.66-1.15Q339.91-0.35 341.71 1.1 343.51 2.55 343.51 5.2L343.51 5.2Q343.51 7.2 342.21 8.83 340.91 10.45 338.61 11.38 336.31 12.3 333.46 12.3L333.46 12.3Q329.31 12.3 327.04 10.83 324.76 9.35 324.76 6.7L324.76 6.7Q324.76 4.85 326.24 3.28 327.71 1.7 330.21 0.9L330.21 0.9Q328.46 0.2 327.69-0.68 326.91-1.55 326.91-2.75L326.91-2.75Q326.91-4.15 328.59-5.3 330.26-6.45 333.41-7.15L333.41-7.15Q330.31-7.45 328.39-9.45 326.46-11.45 326.46-14.45L326.46-14.45Q326.46-17.65 328.69-19.68 330.91-21.7 334.41-21.7L334.41-21.7Q337.21-21.7 339.26-20.35L339.26-20.35Q340.51-24.65 343.11-24.65L343.11-24.65Q344.06-24.65 344.61-24.13 345.16-23.6 345.16-22.75L345.16-22.75Q345.16-22.05 344.66-21.55 344.16-21.05 343.46-21.05L343.46-21.05Q342.86-21.05 342.21-21.6L342.21-21.6Q342.11-21.65 341.79-21.85 341.46-22.05 341.11-22.05L341.11-22.05ZM334.41-7.6Q336.31-7.6 337.49-9.5 338.66-11.4 338.66-14.4L338.66-14.4Q338.66-17.4 337.49-19.3 336.31-21.2 334.41-21.2L334.41-21.2Q332.51-21.2 331.34-19.3 330.16-17.4 330.16-14.4L330.16-14.4Q330.16-11.4 331.34-9.5 332.51-7.6 334.41-7.6L334.41-7.6ZM340.61 6.7Q340.61 4.8 339.26 3.78 337.91 2.75 334.16 2L334.16 2Q332.06 1.65 330.71 1.1L330.71 1.1Q327.16 2.35 327.16 6.25L327.16 6.25Q327.16 8.9 328.89 10.35 330.61 11.8 333.76 11.8L333.76 11.8Q336.91 11.8 338.76 10.43 340.61 9.05 340.61 6.7L340.61 6.7Z" opacity="1" transform="matrix(1,0,0,1,0,0)" fill="#ffffff" class="undefined-text-1" data-fill-palette-color="secondary" id="text-1"></path></svg></g></svg></g></svg></g></svg></g></svg></g></svg></g></svg></g><g><path d="M217.806 0c68.262 0 123.6 55.338 123.6 123.6 0 68.262-55.338 123.6-123.6 123.6-33.599 0-64.067-13.406-86.346-35.161l6.73 0c21.086 18.995 49.001 30.557 79.616 30.556 30.615 0 58.53-11.562 79.616-30.556h3.892v-3.667c21.906-21.582 35.487-51.591 35.487-84.772 0-33.181-13.581-63.19-35.487-84.772v-3.667l-3.892 0c-21.086-18.995-49.001-30.557-79.616-30.556-30.615 0-58.53 11.562-79.616 30.556l-6.73 0c22.279-21.755 52.747-35.161 86.346-35.161z" fill="#ffffff" stroke="transparent" data-fill-palette-color="tertiary"></path></g></svg></g><defs></defs></svg><rect width="395.52" height="247.2" fill="none" stroke="none" visibility="hidden"></rect></g></svg></g></svg>